<svg xmlns="http://www.w3.org/2000/svg" width="25" height="24" viewBox="0 0 25 24" fill="none"><path d="M9.8 3.89844H15.2L17 5.69844H20.6C20.8387 5.69844 21.0676 5.79326 21.2364 5.96204C21.4052 6.13082 21.5 6.35974 21.5 6.59844V19.1984C21.5 19.4371 21.4052 19.6661 21.2364 19.8348C21.0676 20.0036 20.8387 20.0984 20.6 20.0984H4.4C4.16131 20.0984 3.93239 20.0036 3.7636 19.8348C3.59482 19.6661 3.5 19.4371 3.5 19.1984V6.59844C3.5 6.35974 3.59482 6.13082 3.7636 5.96204C3.93239 5.79326 4.16131 5.69844 4.4 5.69844H8L9.8 3.89844ZM12.5 18.2984C13.9322 18.2984 15.3057 17.7295 16.3184 16.7168C17.3311 15.7041 17.9 14.3306 17.9 12.8984C17.9 11.4663 17.3311 10.0928 16.3184 9.08006C15.3057 8.06736 13.9322 7.49844 12.5 7.49844C11.0678 7.49844 9.69432 8.06736 8.68162 9.08006C7.66893 10.0928 7.1 11.4663 7.1 12.8984C7.1 14.3306 7.66893 15.7041 8.68162 16.7168C9.69432 17.7295 11.0678 18.2984 12.5 18.2984ZM12.5 16.4984C11.5452 16.4984 10.6295 16.1192 9.95442 15.444C9.27928 14.7689 8.9 13.8532 8.9 12.8984C8.9 11.9437 9.27928 11.028 9.95442 10.3529C10.6295 9.67772 11.5452 9.29844 12.5 9.29844C13.4548 9.29844 14.3705 9.67772 15.0456 10.3529C15.7207 11.028 16.1 11.9437 16.1 12.8984C16.1 13.8532 15.7207 14.7689 15.0456 15.444C14.3705 16.1192 13.4548 16.4984 12.5 16.4984Z" fill="#0E121B"></path></svg>